<?xml version="1.0" encoding="utf-8"?>
<!-- Generator: Adobe Illustrator 24.1.2, SVG Export Plug-In . SVG Version: 6.00 Build 0)  -->
<svg version="1.1" id="Layer_1" xmlns="http://www.w3.org/2000/svg" xmlns:xlink="http://www.w3.org/1999/xlink" x="0px" y="0px"
	 viewBox="0 0 250 38" style="enable-background:new 0 0 250 38;" xml:space="preserve">
<style type="text/css">
	.st0{fill:#696766;}
	.st1{fill:#252321;}
	.st2{fill:none;stroke:#DEDDDB;stroke-width:0.216;stroke-miterlimit:10;}
	.st3{fill:#7FB340;}
	.st4{fill:#CB2928;}
</style>
<g>
	<g>
		<path class="st0" d="M125.91,27.88h0.9v3.11h0.02c0.14-0.26,0.37-0.49,0.65-0.64c0.27-0.15,0.59-0.26,0.93-0.26
			c0.67,0,1.74,0.41,1.74,2.13v2.96h-0.91v-2.86c0-0.8-0.3-1.48-1.15-1.48c-0.59,0-1.05,0.41-1.22,0.9
			c-0.05,0.12-0.06,0.26-0.06,0.44v3h-0.9V27.88z"/>
		<path class="st0" d="M132.62,28.81c0.01,0.31-0.21,0.55-0.57,0.55c-0.32,0-0.55-0.24-0.55-0.55c0-0.31,0.24-0.57,0.57-0.57
			C132.41,28.24,132.62,28.49,132.62,28.81 M131.62,30.2h0.91v4.98h-0.91V30.2z"/>
		<path class="st0" d="M138.32,30.2c-0.02,0.37-0.04,0.77-0.04,1.37v2.89c0,1.14-0.23,1.84-0.71,2.27c-0.49,0.46-1.19,0.6-1.81,0.6
			c-0.6,0-1.26-0.15-1.66-0.42l0.23-0.69c0.33,0.21,0.85,0.4,1.46,0.4c0.92,0,1.61-0.49,1.61-1.74v-0.55h-0.02
			c-0.28,0.46-0.82,0.83-1.59,0.83c-1.24,0-2.12-1.05-2.12-2.43c0-1.69,1.11-2.64,2.25-2.64c0.86,0,1.34,0.46,1.55,0.87h0.02
			l0.04-0.76H138.32z M137.38,32.17c0-0.15-0.01-0.28-0.05-0.41c-0.17-0.52-0.61-0.96-1.27-0.96c-0.86,0-1.48,0.73-1.48,1.89
			c0,0.98,0.5,1.79,1.47,1.79c0.56,0,1.06-0.35,1.25-0.93c0.06-0.15,0.08-0.33,0.08-0.48V32.17z"/>
		<path class="st0" d="M139.78,27.88h0.9v3.11h0.02c0.14-0.26,0.37-0.49,0.65-0.64c0.27-0.15,0.59-0.26,0.93-0.26
			c0.67,0,1.74,0.41,1.74,2.13v2.96h-0.91v-2.86c0-0.8-0.3-1.48-1.15-1.48c-0.59,0-1.05,0.41-1.22,0.9
			c-0.05,0.12-0.06,0.26-0.06,0.44v3h-0.9V27.88z"/>
		<path class="st0" d="M147.66,31.83c0-0.64-0.02-1.15-0.04-1.63h0.81l0.04,0.85h0.03c0.37-0.6,0.96-0.96,1.77-0.96
			c1.21,0,2.11,1.02,2.11,2.53c0,1.79-1.09,2.68-2.26,2.68c-0.66,0-1.23-0.29-1.54-0.79h-0.02v2.71h-0.9V31.83z M148.56,33.16
			c0,0.13,0.02,0.26,0.04,0.37c0.16,0.63,0.71,1.06,1.36,1.06c0.96,0,1.51-0.78,1.51-1.92c0-1-0.53-1.86-1.48-1.86
			c-0.62,0-1.2,0.45-1.37,1.13c-0.03,0.11-0.06,0.25-0.06,0.37V33.16z"/>
		<path class="st0" d="M154.02,32.86c0.02,1.22,0.81,1.73,1.71,1.73c0.65,0,1.04-0.11,1.38-0.26l0.15,0.65
			c-0.32,0.15-0.87,0.31-1.66,0.31c-1.54,0-2.45-1.01-2.45-2.51c0-1.5,0.88-2.69,2.34-2.69c1.63,0,2.06,1.43,2.06,2.35
			c0,0.19-0.03,0.33-0.04,0.43H154.02z M156.68,32.21c0.01-0.58-0.24-1.47-1.25-1.47c-0.92,0-1.32,0.84-1.39,1.47H156.68z"/>
		<path class="st0" d="M158.67,31.76c0-0.59-0.01-1.09-0.04-1.56h0.79l0.04,0.98h0.04c0.23-0.67,0.77-1.09,1.38-1.09
			c0.11,0,0.18,0.01,0.26,0.03v0.85c-0.1-0.02-0.19-0.03-0.31-0.03c-0.64,0-1.09,0.49-1.22,1.16c-0.02,0.12-0.04,0.27-0.04,0.42
			v2.66h-0.89V31.76z"/>
		<path class="st0" d="M162.44,35.18V30.9h-0.7v-0.69h0.7v-0.24c0-0.7,0.15-1.34,0.58-1.74c0.34-0.33,0.79-0.46,1.21-0.46
			c0.32,0,0.6,0.07,0.78,0.14l-0.12,0.7c-0.13-0.07-0.32-0.12-0.58-0.12c-0.77,0-0.96,0.68-0.96,1.44v0.27h1.2v0.69h-1.2v4.29
			H162.44z"/>
		<path class="st0" d="M169.72,32.65c0,1.84-1.27,2.65-2.48,2.65c-1.35,0-2.39-1-2.39-2.57c0-1.67,1.09-2.64,2.47-2.64
			C168.75,30.09,169.72,31.14,169.72,32.65 M165.77,32.71c0,1.09,0.63,1.92,1.51,1.92c0.86,0,1.51-0.82,1.51-1.94
			c0-0.85-0.41-1.92-1.48-1.92C166.24,30.77,165.77,31.76,165.77,32.71z"/>
		<path class="st0" d="M170.86,31.76c0-0.59-0.01-1.09-0.04-1.56h0.79l0.03,0.98h0.04c0.22-0.67,0.77-1.09,1.38-1.09
			c0.1,0,0.18,0.01,0.26,0.03v0.85c-0.09-0.02-0.18-0.03-0.31-0.03c-0.64,0-1.09,0.49-1.22,1.16c-0.02,0.12-0.04,0.27-0.04,0.42
			v2.66h-0.9V31.76z"/>
		<path class="st0" d="M174.27,31.55c0-0.52-0.01-0.94-0.04-1.35h0.79l0.04,0.81h0.03c0.28-0.47,0.74-0.92,1.57-0.92
			c0.68,0,1.19,0.41,1.41,1h0.03c0.15-0.27,0.35-0.49,0.55-0.65c0.3-0.23,0.63-0.35,1.1-0.35c0.66,0,1.63,0.44,1.63,2.16v2.93h-0.88
			v-2.82c0-0.95-0.35-1.53-1.08-1.53c-0.52,0-0.92,0.38-1.07,0.83c-0.04,0.12-0.07,0.28-0.07,0.45v3.08h-0.88V32.2
			c0-0.79-0.35-1.37-1.04-1.37c-0.56,0-0.98,0.45-1.12,0.9c-0.05,0.13-0.07,0.29-0.07,0.45v3h-0.89V31.55z"/>
		<path class="st0" d="M185.6,35.18l-0.07-0.63h-0.03c-0.28,0.39-0.82,0.74-1.52,0.74c-1.01,0-1.53-0.71-1.53-1.43
			c0-1.2,1.07-1.86,3-1.85v-0.1c0-0.41-0.12-1.15-1.13-1.15c-0.47,0-0.95,0.14-1.3,0.37l-0.2-0.6c0.41-0.27,1.01-0.45,1.63-0.45
			c1.53,0,1.9,1.04,1.9,2.04v1.86c0,0.43,0.02,0.85,0.08,1.19H185.6z M185.47,32.64c-0.99-0.02-2.11,0.15-2.11,1.13
			c0,0.58,0.39,0.86,0.85,0.86c0.65,0,1.06-0.41,1.2-0.84c0.04-0.09,0.06-0.19,0.06-0.29V32.64z"/>
		<path class="st0" d="M187.8,31.55c0-0.52-0.01-0.94-0.04-1.35h0.8l0.06,0.83h0.02c0.25-0.47,0.82-0.94,1.65-0.94
			c0.68,0,1.76,0.41,1.76,2.12v2.97h-0.9v-2.87c0-0.8-0.3-1.47-1.16-1.47c-0.6,0-1.06,0.42-1.22,0.92
			c-0.04,0.11-0.06,0.27-0.06,0.43v2.99h-0.9V31.55z"/>
		<path class="st0" d="M197.06,35c-0.24,0.12-0.76,0.29-1.43,0.29c-1.5,0-2.48-1.02-2.48-2.55c0-1.53,1.05-2.64,2.68-2.64
			c0.53,0,1.01,0.13,1.25,0.26l-0.2,0.7c-0.22-0.12-0.56-0.24-1.05-0.24c-1.14,0-1.76,0.84-1.76,1.88c0,1.15,0.74,1.86,1.73,1.86
			c0.51,0,0.85-0.13,1.11-0.25L197.06,35z"/>
		<path class="st0" d="M198.56,32.86c0.02,1.22,0.81,1.73,1.71,1.73c0.65,0,1.04-0.11,1.38-0.26l0.16,0.65
			c-0.32,0.15-0.87,0.31-1.66,0.31c-1.54,0-2.45-1.01-2.45-2.51c0-1.5,0.88-2.69,2.34-2.69c1.62,0,2.06,1.43,2.06,2.35
			c0,0.19-0.02,0.33-0.03,0.43H198.56z M201.22,32.21c0.01-0.58-0.24-1.47-1.26-1.47c-0.92,0-1.32,0.84-1.39,1.47H201.22z"/>
		<path class="st0" d="M205.4,31.83c0-0.64-0.02-1.15-0.04-1.63h0.81l0.04,0.85h0.02c0.38-0.6,0.96-0.96,1.77-0.96
			c1.21,0,2.11,1.02,2.11,2.53c0,1.79-1.09,2.68-2.26,2.68c-0.66,0-1.24-0.29-1.54-0.79h-0.02v2.71h-0.89V31.83z M206.29,33.16
			c0,0.13,0.02,0.26,0.04,0.37c0.17,0.63,0.71,1.06,1.36,1.06c0.96,0,1.51-0.78,1.51-1.92c0-1-0.52-1.86-1.48-1.86
			c-0.62,0-1.2,0.45-1.37,1.13c-0.03,0.11-0.06,0.25-0.06,0.37V33.16z"/>
		<path class="st0" d="M214.01,35.18l-0.07-0.63h-0.04c-0.27,0.39-0.81,0.74-1.52,0.74c-1.01,0-1.53-0.71-1.53-1.43
			c0-1.2,1.07-1.86,3-1.85v-0.1c0-0.41-0.11-1.15-1.13-1.15c-0.47,0-0.95,0.14-1.3,0.37l-0.21-0.6c0.41-0.27,1.01-0.45,1.63-0.45
			c1.53,0,1.9,1.04,1.9,2.04v1.86c0,0.43,0.02,0.85,0.08,1.19H214.01z M213.87,32.64c-0.99-0.02-2.11,0.15-2.11,1.13
			c0,0.58,0.39,0.86,0.85,0.86c0.65,0,1.06-0.41,1.21-0.84c0.03-0.09,0.05-0.19,0.05-0.29V32.64z"/>
		<path class="st0" d="M219.76,35c-0.24,0.12-0.76,0.29-1.43,0.29c-1.5,0-2.48-1.02-2.48-2.55c0-1.53,1.05-2.64,2.67-2.64
			c0.54,0,1.01,0.13,1.26,0.26l-0.21,0.7c-0.21-0.12-0.55-0.24-1.05-0.24c-1.14,0-1.76,0.84-1.76,1.88c0,1.15,0.74,1.86,1.73,1.86
			c0.52,0,0.86-0.13,1.11-0.25L219.76,35z"/>
		<path class="st0" d="M221.71,32.49h0.02c0.12-0.17,0.3-0.39,0.45-0.57l1.46-1.72h1.09l-1.93,2.05l2.19,2.93h-1.1l-1.72-2.38
			l-0.47,0.51v1.87h-0.9v-7.3h0.9V32.49z"/>
		<path class="st0" d="M228.58,35.18l-0.07-0.63h-0.03c-0.27,0.39-0.82,0.74-1.52,0.74c-1.01,0-1.53-0.71-1.53-1.43
			c0-1.2,1.07-1.86,3-1.85v-0.1c0-0.41-0.11-1.15-1.13-1.15c-0.46,0-0.95,0.14-1.3,0.37l-0.21-0.6c0.41-0.27,1.01-0.45,1.64-0.45
			c1.53,0,1.9,1.04,1.9,2.04v1.86c0,0.43,0.02,0.85,0.08,1.19H228.58z M228.45,32.64c-0.99-0.02-2.11,0.15-2.11,1.13
			c0,0.58,0.39,0.86,0.86,0.86c0.65,0,1.06-0.41,1.2-0.84c0.03-0.09,0.05-0.19,0.05-0.29V32.64z"/>
		<path class="st0" d="M235.07,30.2c-0.02,0.37-0.04,0.77-0.04,1.37v2.89c0,1.14-0.23,1.84-0.71,2.27c-0.49,0.46-1.18,0.6-1.81,0.6
			c-0.6,0-1.26-0.15-1.66-0.42l0.23-0.69c0.33,0.21,0.84,0.4,1.47,0.4c0.92,0,1.6-0.49,1.6-1.74v-0.55h-0.02
			c-0.28,0.46-0.82,0.83-1.58,0.83c-1.24,0-2.12-1.05-2.12-2.43c0-1.69,1.1-2.64,2.24-2.64c0.87,0,1.34,0.46,1.56,0.87h0.02
			l0.04-0.76H235.07z M234.14,32.17c0-0.15-0.01-0.28-0.05-0.41c-0.16-0.52-0.61-0.96-1.26-0.96c-0.87,0-1.48,0.73-1.48,1.89
			c0,0.98,0.5,1.79,1.47,1.79c0.55,0,1.06-0.35,1.25-0.93c0.05-0.15,0.07-0.33,0.07-0.48V32.17z"/>
		<path class="st0" d="M237.48,28.81c0.01,0.31-0.22,0.55-0.58,0.55c-0.32,0-0.54-0.24-0.54-0.55c0-0.31,0.24-0.57,0.56-0.57
			C237.26,28.24,237.48,28.49,237.48,28.81 M236.47,30.2h0.9v4.98h-0.9V30.2z"/>
		<path class="st0" d="M238.88,31.55c0-0.52-0.01-0.94-0.04-1.35h0.8l0.06,0.83h0.02c0.25-0.47,0.83-0.94,1.65-0.94
			c0.69,0,1.76,0.41,1.76,2.12v2.97h-0.91v-2.87c0-0.8-0.3-1.47-1.16-1.47c-0.6,0-1.06,0.42-1.22,0.92
			c-0.04,0.11-0.06,0.27-0.06,0.43v2.99h-0.91V31.55z"/>
		<path class="st0" d="M248.88,30.2c-0.02,0.37-0.04,0.77-0.04,1.37v2.89c0,1.14-0.23,1.84-0.71,2.27c-0.49,0.46-1.19,0.6-1.81,0.6
			c-0.6,0-1.26-0.15-1.66-0.42l0.23-0.69c0.33,0.21,0.84,0.4,1.46,0.4c0.93,0,1.61-0.49,1.61-1.74v-0.55h-0.02
			c-0.28,0.46-0.82,0.83-1.59,0.83c-1.23,0-2.12-1.05-2.12-2.43c0-1.69,1.11-2.64,2.25-2.64c0.86,0,1.34,0.46,1.55,0.87h0.02
			l0.04-0.76H248.88z M247.94,32.17c0-0.15-0.01-0.28-0.05-0.41c-0.16-0.52-0.61-0.96-1.27-0.96c-0.86,0-1.48,0.73-1.48,1.89
			c0,0.98,0.49,1.79,1.47,1.79c0.56,0,1.06-0.35,1.25-0.93c0.06-0.15,0.08-0.33,0.08-0.48V32.17z"/>
	</g>
	<path class="st1" d="M33.22,16.23c0.31,0.37,0.61,0.64,0.89,0.81c0.29,0.16,0.59,0.25,0.91,0.25c0.59,0,1-0.19,1.24-0.58
		c0.24-0.38,0.36-1.1,0.36-2.15V1.19h2.96v14.34c0,1.56-0.35,2.7-1.03,3.44c-0.68,0.73-1.76,1.1-3.21,1.1
		c-0.81,0-1.53-0.15-2.18-0.46c-0.65-0.31-1.26-0.79-1.84-1.44L33.22,16.23z"/>
	<path class="st1" d="M49.9,0.46L41,19.57h3.14l2.13-4.73h7.28l2.08,4.73h3.15L49.9,0.46z M47.38,12.35c0,0,2.45-5.63,2.55-6.03
		c0.12,0.43,2.57,6.03,2.57,6.03H47.38z"/>
	<path class="st1" d="M63.08,19.57v-8.42l-6.19-9.97h3.14l3.86,6.24c0.09,0.15,0.21,0.37,0.34,0.63c0.14,0.26,0.28,0.55,0.43,0.85
		c0.11-0.29,0.24-0.57,0.37-0.83c0.13-0.26,0.27-0.5,0.4-0.72l3.96-6.17h2.99l-6.33,9.97v8.42H63.08z"/>
	<path class="st1" d="M73.31,15.89l2.39-1.11c0.23,0.82,0.64,1.45,1.25,1.88c0.6,0.43,1.37,0.65,2.31,0.65
		c0.89,0,1.59-0.25,2.12-0.73c0.53-0.5,0.79-1.16,0.79-1.99c0-1.08-0.89-2.04-2.69-2.89c-0.25-0.13-0.45-0.22-0.58-0.28
		c-2.03-0.99-3.37-1.88-4.05-2.68c-0.68-0.8-1.01-1.77-1.01-2.93c0-1.49,0.51-2.71,1.53-3.64c1.02-0.93,2.35-1.39,4-1.39
		c1.36,0,2.49,0.25,3.4,0.78c0.91,0.52,1.54,1.28,1.9,2.26l-2.34,1.2c-0.37-0.58-0.77-1-1.21-1.27c-0.44-0.27-0.95-0.4-1.52-0.4
		c-0.81,0-1.44,0.2-1.92,0.63c-0.47,0.42-0.71,0.98-0.71,1.68c0,1.11,1.04,2.14,3.12,3.09c0.16,0.08,0.29,0.14,0.37,0.18
		c1.82,0.84,3.07,1.65,3.74,2.46c0.68,0.8,1.02,1.8,1.02,2.99c0,1.74-0.54,3.13-1.64,4.15c-1.1,1.03-2.58,1.54-4.45,1.54
		c-1.57,0-2.85-0.36-3.85-1.08C74.28,18.27,73.62,17.23,73.31,15.89"/>
	<polygon class="st1" points="88.48,19.57 88.48,1.19 91.47,1.19 91.47,7.97 100.51,7.97 100.51,1.19 103.5,1.19 103.5,19.57 
		100.51,19.57 100.51,10.65 91.47,10.65 91.47,19.57 	"/>
	<path class="st1" d="M114.02,11.21c1.39-0.17,2.44-0.67,3.15-1.5c0.71-0.83,1.07-1.99,1.07-3.46c0-0.84-0.16-1.61-0.46-2.31
		c-0.31-0.7-0.75-1.27-1.32-1.72c-0.48-0.37-1.06-0.63-1.73-0.8c-0.67-0.15-1.63-0.24-2.85-0.24h-4.17v18.38h2.8v-8.22h0.34
		l6.11,8.22h3.38L114.02,11.21z M110.7,9.03V3.75h0.54c1.51,0,2.54,0.2,3.1,0.62c0.55,0.42,0.84,1.13,0.84,2.14
		c0,0.94-0.26,1.59-0.78,1.96c-0.52,0.37-1.57,0.55-3.15,0.55H110.7z"/>
	<rect x="122.17" y="1.19" class="st1" width="2.99" height="18.39"/>
	<path class="st2" d="M184.52,10.54c0,5.4-4.38,9.78-9.78,9.78c-5.4,0-9.78-4.38-9.78-9.78c0-5.4,4.38-9.78,9.78-9.78
		C180.14,0.76,184.52,5.14,184.52,10.54z"/>
	<path class="st3" d="M180.69,3.94c-0.23-0.19-0.45-0.38-0.67-0.57c-0.05-0.04-0.09-0.07-0.12-0.1l-0.64-0.42
		c-0.29-0.15-0.59-0.31-0.88-0.46c-0.36-0.13-0.72-0.27-1.07-0.4c-0.26-0.06-0.51-0.12-0.76-0.2c-0.08-0.02-0.16-0.01-0.18,0.07
		c-0.01,0.03,0.07,0.11,0.11,0.13c0.24,0.09,0.48,0.15,0.71,0.23c0.35,0.14,0.69,0.28,1.05,0.41c0.15,0.08,0.17,0.2,0.14,0.34
		c-0.01,0.05-0.02,0.11-0.04,0.17c-0.09,0.29,0.01,0.5,0.27,0.66c0.13,0.1,0.25,0.22,0.39,0.3c0.17,0.11,0.22,0.08,0.24-0.11
		c0.04-0.33,0.2-0.44,0.48-0.31c0.19,0.2,0.41,0.36,0.7,0.42c0.13,0.02,0.24,0.11,0.35,0.16l0.56,0.53
		c-0.01,0.02-0.02,0.03-0.04,0.05c-0.16-0.05-0.31-0.1-0.47-0.15c-0.13-0.05-0.27-0.11-0.41-0.17c-0.06,0.08-0.12,0.16-0.18,0.24
		c0.06-0.09,0.12-0.16,0.18-0.24c-0.17-0.05-0.34-0.1-0.52-0.15c-0.34,0-0.68,0.09-0.94,0.31c-0.45,0.39-0.71,0.89-0.79,1.47
		c-0.02,0.19,0.02,0.24,0.21,0.29c0.04,0.01,0.08,0.02,0.12,0.04c0.16,0.12,0.14,0.31,0.14,0.49c-0.04,0.07-0.06,0.16-0.11,0.23
		c-0.09,0.1-0.11,0.21-0.1,0.33c0.02,0.11,0.06,0.24,0.09,0.35c0.13,0.26,0.26,0.51,0.39,0.76l0.46,0.48
		c0.19,0.15,0.4,0.2,0.63,0.14c0.19-0.02,0.38-0.04,0.57-0.07c0.16-0.03,0.34-0.06,0.51-0.09c0.04-0.05,0.07-0.1,0.1-0.15
		c-0.03,0.05-0.06,0.1-0.1,0.15c0.15,0.01,0.3,0.03,0.45,0.04l0.28,0.2c0.12,0.18,0.25,0.35,0.37,0.52
		c0.05,0.14,0.07,0.28-0.03,0.42c-0.04,0.04-0.05,0.11-0.04,0.16c0,0.14,0.01,0.29,0.02,0.44c0.01,0.03,0.01,0.07,0.01,0.1
		c0.06,0.35,0.05,0.71-0.1,1.04c-0.03,0.07-0.05,0.14-0.07,0.2c-0.09,0.22-0.12,0.46-0.09,0.69c0.03,0.23,0.04,0.47,0.04,0.7
		c0,0.17-0.06,0.32-0.17,0.45c-0.08,0.1-0.15,0.21-0.16,0.32c-0.03,0.3-0.03,0.61-0.02,0.91c0,0.14,0.08,0.1,0.2,0.11
		c0.22,0.03,0.46-0.11,0.55-0.27c1.21-2.11,1.2-3.38,1.26-3.81c0.01-0.08,0.01-0.16,0.02-0.24c0.01-0.17,0.02-0.32,0.02-0.49
		C183.58,7.97,182.46,5.59,180.69,3.94"/>
	<path class="st3" d="M173.29,18.08c0.09,0.01,0.18,0,0.27-0.02c0.11-0.03,0.14-0.11,0.05-0.19c-0.23-0.19-0.48-0.37-0.72-0.55
		c-0.01-0.02-0.01-0.05-0.03-0.06c-0.26-0.28-0.14-0.53,0.06-0.71c0.12-0.11,0.25-0.21,0.38-0.31c0.4-0.28,0.47-0.66,0.35-1.1
		c-0.01-0.13-0.03-0.27-0.03-0.41c0-0.16,0.07-0.21,0.21-0.25c0.15-0.04,0.29-0.08,0.42-0.16c0.29-0.2,0.51-0.46,0.66-0.78
		c0.04-0.09,0.04-0.21,0.02-0.31c-0.03-0.13-0.08-0.27-0.13-0.4c-0.06-0.27-0.02-0.49,0.18-0.7c0.28-0.29,0.44-0.64,0.5-1.04
		c0.02-0.19-0.01-0.35-0.18-0.45c-0.28-0.23-0.62-0.32-0.96-0.39c-0.15-0.02-0.31-0.04-0.46-0.05c-0.24-0.02-0.47-0.05-0.67-0.18
		c-0.14-0.13-0.15-0.29-0.17-0.46c-0.02-0.19-0.1-0.36-0.29-0.47c-0.1-0.02-0.2-0.07-0.3-0.08c-0.19-0.02-0.38-0.03-0.57-0.04
		c-0.14-0.1-0.28-0.2-0.42-0.29c-0.09-0.11-0.17-0.21-0.27-0.32c-0.07-0.07-0.15-0.14-0.23-0.2c-0.14-0.12-0.3-0.14-0.47-0.11
		c-0.29,0.04-0.56,0.13-0.79,0.33c-0.08,0.07-0.18,0.17-0.19,0.27c-0.05,0.34-0.26,0.55-0.48,0.77c-0.13,0.13-0.27,0.16-0.44,0.09
		c-0.16-0.11-0.23-0.28-0.23-0.46c0-0.17,0.01-0.34,0.01-0.51c0-0.09-0.01-0.18-0.03-0.31c-0.1,0.08-0.17,0.13-0.24,0.18
		c-0.12,0.06-0.18,0-0.2-0.11c-0.02-0.11-0.02-0.22-0.01-0.32c0.01-0.16,0.06-0.31,0.08-0.47c0.01-0.07-0.02-0.13-0.03-0.18
		c-0.06,0.01-0.12,0.01-0.18,0.04c-0.12,0.06-0.23,0.15-0.35,0.21c-0.07,0.03-0.14,0.03-0.22,0.04c0.01-0.07-0.01-0.14,0.01-0.2
		c0.13-0.35,0.25-0.72,0.41-1.05c0.21-0.43,0.59-0.67,1.07-0.7c0.16-0.01,0.21,0.04,0.23,0.2c0.05,0.34,0.22,0.62,0.46,0.85
		c0.15,0.18,0.33,0.3,0.55,0.37c0.04,0.01,0.09,0,0.11-0.02c0.02-0.02,0.01-0.08-0.01-0.1c-0.09-0.09-0.18-0.17-0.28-0.25
		c-0.07-0.04-0.14-0.08-0.22-0.12c-0.13-0.27-0.11-0.55-0.12-0.83c-0.02-0.29,0.1-0.51,0.32-0.69c0.09-0.07,0.19-0.15,0.29-0.21
		c0.26-0.12,0.51-0.25,0.78-0.37c0.31-0.12,0.52-0.35,0.73-0.59c0.21-0.24,0.4-0.5,0.61-0.74c0.12-0.15,0.26-0.28,0.4-0.41
		c0.23-0.2,0.5-0.18,0.78-0.16c0.19,0.04,0.37,0.08,0.55,0.12c0.04,0.01,0.1-0.01,0.12-0.05c0.02-0.01-0.01-0.09-0.03-0.11
		c-0.11-0.13-0.24-0.25-0.36-0.38c-0.02-0.04-0.05-0.08-0.07-0.12c0.05-0.02,0.09-0.03,0.13-0.05c0.03-0.01,0.06-0.01,0.08-0.01
		c0.21,0.01,0.43,0.04,0.64-0.04c-0.07-0.06-0.14-0.11-0.22-0.13c-0.1-0.04-0.2-0.05-0.3-0.07c-0.05-0.07-0.12-0.1-0.21-0.08
		c-0.38,0.08-0.78,0.15-1.16,0.23c-0.11,0.03-0.22,0.06-0.33,0.1c-2.59,0.86-4.42,2.55-5.51,5.05c-0.04,0.09-0.02,0.17,0.01,0.26
		c0.28,0.61,0.77,1.03,1.26,1.43c0.18,0.16,0.21,0.39,0.3,0.6c0.06,0.14,0.14,0.27,0.22,0.41c-0.02,0.18-0.03,0.37-0.04,0.55
		c-0.03,0.29-0.06,0.57-0.1,0.86c0,0.18,0.05,0.34,0.16,0.49c0.07,0.08,0.15,0.17,0.23,0.25c0.12,0.1,0.22,0.19,0.34,0.29
		c0.14,0.1,0.28,0.2,0.42,0.31c0.19,0.13,0.38,0.27,0.57,0.4c0.07,0.06,0.14,0.11,0.2,0.18c0.06,0.09,0.14,0.19,0.17,0.29
		c0.04,0.19,0.04,0.37,0.06,0.55c0,0.03,0,0.05,0,0.07c0.07,0.49,0.13,0.98,0.21,1.46c0.03,0.41,0.06,0.81,0.11,1.21
		c0.01,0.09,0.07,0.18,0.11,0.27c0.16,0.24,0.39,0.39,0.64,0.51c0.13,0.07,0.25,0.13,0.38,0.19c0.2,0.08,0.4,0.15,0.59,0.23
		C172.75,17.95,173.02,18.02,173.29,18.08"/>
	<path class="st3" d="M178.4,18.37c-0.67-0.11-1.3,0.1-1.93,0.31c-0.07,0.02-0.28,0.09-0.3,0.11c-0.24,0.1-0.46,0.23-0.72,0.21
		c-0.01-0.01-0.01-0.01-0.01-0.01c-0.05,0-0.37-0.07-0.54-0.1c-0.2-0.05-0.42-0.1-0.62-0.15c-0.03-0.01-0.05-0.02-0.06-0.03
		c-0.25-0.08-0.49-0.02-0.73,0l-0.57-0.09c-0.21-0.02-0.42-0.04-0.63-0.07c-0.33-0.04-0.2,0.24-0.11,0.32
		c0.16,0.14,0.36,0.15,0.55,0.2c0.18,0.04,0.36,0.07,0.53,0.11l0.67,0.09c0.25,0.02,0.49,0.03,0.74,0.05h0.02
		c0.18-0.01,0.57-0.02,0.62-0.02h0c0.04,0,0.46-0.05,0.64-0.06c0.08-0.01,0.19-0.03,0.26-0.04c0.77-0.13,1.5-0.36,2.19-0.68
		C178.47,18.45,178.42,18.37,178.4,18.37"/>
	<path class="st4" d="M140.01,11.32v8.25h-2.8V1.19h4.52c1.34,0,2.33,0.08,2.96,0.22c0.63,0.14,1.19,0.39,1.66,0.72
		c0.58,0.43,1.03,1.01,1.36,1.73c0.32,0.72,0.49,1.52,0.49,2.39c0,0.87-0.17,1.68-0.49,2.41c-0.33,0.73-0.78,1.32-1.36,1.73
		c-0.47,0.33-1.02,0.58-1.66,0.71c-0.63,0.15-1.62,0.21-2.96,0.21h-0.59H140.01z M140.2,8.87h0.77c1.65,0,2.77-0.17,3.32-0.53
		c0.55-0.37,0.83-1,0.83-1.91c0-0.98-0.29-1.67-0.88-2.07c-0.59-0.4-1.68-0.6-3.26-0.6h-0.77V8.87z"/>
	<path class="st4" d="M153.69,11.35v8.22h-2.8V1.19h4.17c1.22,0,2.17,0.08,2.84,0.24c0.67,0.17,1.25,0.43,1.73,0.8
		c0.57,0.45,1.01,1.02,1.32,1.72c0.31,0.71,0.46,1.48,0.46,2.31c0,1.48-0.35,2.63-1.07,3.46c-0.71,0.84-1.76,1.33-3.15,1.5
		l6.33,8.36h-3.38l-6.11-8.22H153.69z M153.88,9.03h0.54c1.58,0,2.63-0.18,3.15-0.55c0.52-0.37,0.78-1.02,0.78-1.96
		c0-1.01-0.28-1.73-0.84-2.14c-0.56-0.42-1.59-0.62-3.1-0.62h-0.54V9.03z"/>
	<path class="st4" d="M190.37,11.32v8.25h-2.8V1.19h4.52c1.34,0,2.33,0.08,2.96,0.22c0.63,0.14,1.19,0.39,1.66,0.72
		c0.58,0.43,1.03,1.01,1.36,1.73c0.32,0.72,0.48,1.52,0.48,2.39c0,0.87-0.16,1.68-0.48,2.41c-0.33,0.73-0.78,1.32-1.36,1.73
		c-0.47,0.33-1.03,0.58-1.66,0.71c-0.63,0.15-1.62,0.21-2.96,0.21h-0.59H190.37z M190.56,8.87h0.77c1.66,0,2.77-0.17,3.32-0.53
		c0.55-0.37,0.83-1,0.83-1.91c0-0.98-0.3-1.67-0.88-2.07c-0.59-0.4-1.68-0.6-3.26-0.6h-0.77V8.87z"/>
	<path class="st4" d="M206.26,0.46l-8.9,19.11h3.14l2.13-4.73h7.29l2.08,4.73h3.15L206.26,0.46z M203.73,12.35
		c0,0,2.45-5.88,2.55-6.28c0.11,0.43,2.57,6.28,2.57,6.28H203.73z"/>
	<path class="st4" d="M231.18,5.66c-0.85-0.72-1.74-1.26-2.68-1.62c-0.94-0.37-1.93-0.55-2.97-0.55c-2.01,0-3.64,0.65-4.9,1.94
		c-1.26,1.29-1.89,2.96-1.89,5.01c0,1.99,0.61,3.62,1.84,4.9c1.23,1.29,2.78,1.94,4.64,1.94c1.09,0,2.12-0.19,3.11-0.58
		c0.98-0.38,1.93-0.97,2.83-1.75v3.38c-0.81,0.58-1.68,1.01-2.62,1.3c-0.95,0.29-1.97,0.43-3.08,0.43c-1.4,0-2.7-0.23-3.9-0.69
		c-1.19-0.46-2.24-1.14-3.14-2.03c-0.9-0.88-1.59-1.92-2.07-3.11c-0.49-1.19-0.72-2.46-0.72-3.81c0-1.34,0.24-2.61,0.72-3.8
		c0.48-1.18,1.18-2.22,2.09-3.12c0.91-0.9,1.96-1.59,3.14-2.05c1.18-0.46,2.46-0.69,3.83-0.69c1.08,0,2.11,0.16,3.09,0.47
		c0.98,0.32,1.93,0.79,2.85,1.43L231.18,5.66z"/>
	<polygon class="st4" points="234.89,19.57 234.89,1.19 237.87,1.19 237.87,8.8 244.48,1.19 248.13,1.19 240.85,9.37 249,19.57 
		245.14,19.57 237.87,10.18 237.87,19.57 	"/>
	<path class="st4" d="M12.39,37.59C6.1,37.59,1,32.48,1,26.2V0.46h22.77V26.2C23.77,32.48,18.66,37.59,12.39,37.59 M2.08,1.55V26.2
		c0,5.68,4.62,10.3,10.31,10.3c5.68,0,10.3-4.62,10.3-10.3V1.55H2.08z"/>
	<path class="st4" d="M21.06,3.32h-1.09v22.8c0,0.01,0,0.02,0,0.04c0,4.18-3.4,7.59-7.59,7.59c-4.19,0-7.59-3.41-7.59-7.59
		c0-2.85,1.57-5.33,3.9-6.63l-0.53-0.95c-2.66,1.49-4.46,4.32-4.46,7.57c0,4.78,3.89,8.68,8.67,8.68c4.78,0,8.68-3.89,8.68-8.68
		c0-0.02,0-0.03,0-0.04V3.32z"/>
	<path class="st4" d="M17.26,3.32v22.84c0,2.69-2.19,4.88-4.88,4.88c-2.69,0-4.88-2.19-4.88-4.88c0-1.83,1.02-3.43,2.51-4.26
		l-0.52-0.95c-1.83,1.03-3.06,2.98-3.06,5.21c0,3.29,2.67,5.97,5.96,5.97c3.27,0,5.92-2.65,5.96-5.9h0V3.32H17.26z"/>
	<path class="st4" d="M14.55,3.32v22.84c0,1.2-0.97,2.17-2.17,2.17c-1.2,0-2.17-0.97-2.17-2.17c0-0.82,0.45-1.52,1.12-1.89
		l-0.53-0.95c-1,0.56-1.67,1.62-1.67,2.84c0,1.8,1.46,3.26,3.25,3.26c1.77,0,3.21-1.43,3.25-3.19V3.32H14.55z"/>
	<path class="st4" d="M3.71,20.54c0,0,2.83-3.51,4.61-3.22c0.29,0.05,0.61,0.23,0.77,0.54c1,1.96,2.51,4.93,3.05,5.66
		c0.34,0.46,1.45,0.6,1.45,0.6V3.33H3.71V20.54z"/>
</g>
</svg>
